<?xml version="1.0" encoding="utf-8"?>
<!-- Generator: Adobe Illustrator 23.1.0, SVG Export Plug-In . SVG Version: 6.00 Build 0)  -->
<svg version="1.1" xmlns="http://www.w3.org/2000/svg" xmlns:xlink="http://www.w3.org/1999/xlink" x="0px" y="0px"
	 viewBox="0 0 1105.3 700.7" style="enable-background:new 0 0 1105.3 700.7;" xml:space="preserve">
<style type="text/css">
	.st0{opacity:0.1;fill:#6C63FF;enable-background:new    ;}
	.st1{opacity:0.2;fill:#6C63FF;enable-background:new    ;}
	.st2{fill:#6C63FF;}
	.st3{opacity:0.7;fill:#6C63FF;enable-background:new    ;}
	.st4{opacity:0.4;fill:#6C63FF;enable-background:new    ;}
	.st5{fill:#3F3D56;}
	.st6{fill:#D0CDE1;}
	.st7{fill:#5249A5;}
	.st8{fill:#FF6584;}
	.st9{fill:#FFB8B8;}
	.st10{opacity:0.1;enable-background:new    ;}
	.st11{fill:#2F2E41;}
	.st12{fill:#575A89;}
	.st13{opacity:0.1;fill:#414154;enable-background:new    ;}
	.st14{fill:#A0616A;}
	.st15{fill:#424242;}
	.st16{opacity:0.1;fill:#424242;enable-background:new    ;}
	.st17{fill:#F2F2F2;}
	.st18{fill:#414154;}
	.st19{fill:#2B2B2D;}
</style>
<g id="Layer_2">
	<path class="st0" d="M1138.2,393.9c0,16.8-2.3,33.5-6.8,49.6c-4.4,15.6-10.9,30.5-19.3,44.3c0,50.1-33.8,93.4-82.9,114
		c-20.5,8.5-42.5,12.9-64.7,12.8H211.4c-40.3,0-77.6-10.9-108.1-29.4c-8.8-5.3-17.1-11.3-24.8-17.9c-34-29.2-55.1-69.6-55.1-114.2
		C4.2,423.7-5.9,389.4-5.8,354.4c0-73.4,43.4-136.4,105.6-164.3c8.3-3.7,16.8-6.7,25.5-9.1c3.1-0.8,6.2-1.6,9.4-2.3
		c8.4-1.8,16.9-3,25.5-3.5c3.1-0.2,6.2-0.3,9.4-0.3h1.7c3.5,0,6.9,0.1,10.3,0.3l1.1-1.9c1.4-2.3,2.8-4.6,4.2-6.8
		c2.6-4.1,5.3-8.1,8.2-12.1c3-4.2,6.1-8.3,9.4-12.4l0.8-1c1.8-2.3,3.7-4.6,5.6-6.8c6-7,12.3-13.8,19-20.4
		C301.9,43.2,414.9-2.3,541.9-2.3c98.8,0,189.2,27.6,258.3,73.1c26.2-14.8,55.8-22.6,85.9-22.6c97.7,0,177,80.4,177,179.5
		c0,6.3-0.3,12.5-1,18.8C1110,280.3,1138.4,335.3,1138.2,393.9z"/>
	<path class="st1" d="M230.3,114.2v20.4h-19C217.2,127.6,223.6,120.8,230.3,114.2z"/>
	<rect x="239.7" y="109.1" class="st1" width="25.5" height="25.5"/>
	<rect x="274.5" y="109.1" class="st1" width="25.5" height="25.5"/>
	<rect x="309.4" y="109.1" class="st1" width="25.5" height="25.5"/>
	<rect x="344.2" y="109.1" class="st1" width="25.5" height="25.5"/>
	<rect x="379.1" y="109.1" class="st1" width="25.5" height="25.5"/>
	<rect x="414" y="109.1" class="st2" width="25.5" height="25.5"/>
	<rect x="448.8" y="109.1" class="st1" width="25.5" height="25.5"/>
	<rect x="483.7" y="109.1" class="st1" width="25.5" height="25.5"/>
	<rect x="518.6" y="109.1" class="st1" width="25.5" height="25.5"/>
	<rect x="553.4" y="109.1" class="st2" width="25.5" height="25.5"/>
	<rect x="588.3" y="109.1" class="st1" width="25.5" height="25.5"/>
	<rect x="623.2" y="109.1" class="st1" width="25.5" height="25.5"/>
	<rect x="658" y="109.1" class="st1" width="25.5" height="25.5"/>
	<rect x="692.9" y="109.1" class="st1" width="25.5" height="25.5"/>
	<rect x="727.8" y="109.1" class="st1" width="25.5" height="25.5"/>
	<rect x="762.6" y="109.1" class="st1" width="25.5" height="25.5"/>
	<rect x="797.5" y="109.1" class="st2" width="25.5" height="25.5"/>
	<rect x="832.4" y="109.1" class="st2" width="25.5" height="25.5"/>
	<rect x="867.2" y="109.1" class="st1" width="25.5" height="25.5"/>
	<rect x="902.1" y="109.1" class="st1" width="25.5" height="25.5"/>
	<rect x="937" y="109.1" class="st2" width="25.5" height="25.5"/>
	<rect x="971.8" y="109.1" class="st2" width="25.5" height="25.5"/>
	<path class="st2" d="M195.4,154.8v12.1h-8.2C189.9,162.8,192.6,158.7,195.4,154.8z"/>
	<rect x="204.8" y="141.4" class="st1" width="25.5" height="25.5"/>
	<rect x="239.7" y="141.4" class="st2" width="25.5" height="25.5"/>
	<rect x="274.5" y="141.4" class="st1" width="25.5" height="25.5"/>
	<rect x="309.4" y="141.4" class="st3" width="25.5" height="25.5"/>
	<rect x="344.2" y="141.4" class="st1" width="25.5" height="25.5"/>
	<rect x="379.1" y="141.4" class="st4" width="25.5" height="25.5"/>
	<rect x="414" y="141.4" class="st2" width="25.5" height="25.5"/>
	<rect x="448.8" y="141.4" class="st4" width="25.5" height="25.5"/>
	<rect x="483.7" y="141.4" class="st1" width="25.5" height="25.5"/>
	<rect x="518.6" y="141.4" class="st4" width="25.5" height="25.5"/>
	<rect x="553.4" y="141.4" class="st2" width="25.5" height="25.5"/>
	<rect x="588.3" y="141.4" class="st4" width="25.5" height="25.5"/>
	<rect x="623.2" y="141.4" class="st4" width="25.5" height="25.5"/>
	<rect x="658" y="141.4" class="st1" width="25.5" height="25.5"/>
	<rect x="692.9" y="141.4" class="st4" width="25.5" height="25.5"/>
	<rect x="727.8" y="141.4" class="st4" width="25.5" height="25.5"/>
	<rect x="762.6" y="141.4" class="st1" width="25.5" height="25.5"/>
	<rect x="797.5" y="141.4" class="st1" width="25.5" height="25.5"/>
	<rect x="832.4" y="141.4" class="st4" width="25.5" height="25.5"/>
	<rect x="867.2" y="141.4" class="st1" width="25.5" height="25.5"/>
	<rect x="902.1" y="141.4" class="st2" width="25.5" height="25.5"/>
	<rect x="937" y="141.4" class="st2" width="25.5" height="25.5"/>
	<rect x="971.8" y="141.4" class="st2" width="25.5" height="25.5"/>
	<path class="st1" d="M125.7,181.4v17.8h-25.5v-8.7C108.4,186.8,117,183.8,125.7,181.4z"/>
	<polygon class="st1" points="160.6,175.6 160.6,199.2 135.1,199.2 135.1,179.1 	"/>
	<rect x="169.9" y="173.7" class="st2" width="25.5" height="25.5"/>
	<rect x="204.8" y="173.7" class="st3" width="25.5" height="25.5"/>
	<rect x="239.7" y="173.7" class="st2" width="25.5" height="25.5"/>
	<rect x="274.5" y="173.7" class="st3" width="25.5" height="25.5"/>
	<rect x="309.4" y="173.7" class="st3" width="25.5" height="25.5"/>
	<rect x="344.2" y="173.7" class="st1" width="25.5" height="25.5"/>
	<rect x="379.1" y="173.7" class="st4" width="25.5" height="25.5"/>
	<rect x="414" y="173.7" class="st4" width="25.5" height="25.5"/>
	<rect x="448.8" y="173.7" class="st2" width="25.5" height="25.5"/>
	<rect x="483.7" y="173.7" class="st1" width="25.5" height="25.5"/>
	<rect x="518.6" y="173.7" class="st4" width="25.5" height="25.5"/>
	<rect x="553.4" y="173.7" class="st2" width="25.5" height="25.5"/>
	<rect x="588.3" y="173.7" class="st1" width="25.5" height="25.5"/>
	<rect x="623.2" y="173.7" class="st4" width="25.5" height="25.5"/>
	<rect x="658" y="173.7" class="st1" width="25.5" height="25.5"/>
	<rect x="692.9" y="173.7" class="st2" width="25.5" height="25.5"/>
	<rect x="727.8" y="173.7" class="st1" width="25.5" height="25.5"/>
	<rect x="762.6" y="173.7" class="st3" width="25.5" height="25.5"/>
	<rect x="797.5" y="173.7" class="st3" width="25.5" height="25.5"/>
	<rect x="832.4" y="173.7" class="st4" width="25.5" height="25.5"/>
	<rect x="867.2" y="173.7" class="st1" width="25.5" height="25.5"/>
	<rect x="902.1" y="173.7" class="st2" width="25.5" height="25.5"/>
	<rect x="937" y="173.7" class="st2" width="25.5" height="25.5"/>
	<rect x="971.8" y="173.7" class="st2" width="25.5" height="25.5"/>
	<rect x="100.2" y="206" class="st1" width="25.5" height="25.5"/>
	<rect x="135.1" y="206" class="st1" width="25.5" height="25.5"/>
	<rect x="169.9" y="206" class="st1" width="25.5" height="25.5"/>
	<rect x="204.8" y="206" class="st1" width="25.5" height="25.5"/>
	<rect x="239.7" y="206" class="st2" width="25.5" height="25.5"/>
	<rect x="274.5" y="206" class="st3" width="25.5" height="25.5"/>
	<rect x="309.4" y="206" class="st3" width="25.5" height="25.5"/>
	<rect x="344.2" y="206" class="st1" width="25.5" height="25.5"/>
	<rect x="379.1" y="206" class="st1" width="25.5" height="25.5"/>
	<rect x="414" y="206" class="st4" width="25.5" height="25.5"/>
	<rect x="448.8" y="206" class="st4" width="25.5" height="25.5"/>
	<rect x="483.7" y="206" class="st2" width="25.5" height="25.5"/>
	<rect x="518.6" y="206" class="st1" width="25.5" height="25.5"/>
	<rect x="553.4" y="206" class="st4" width="25.5" height="25.5"/>
	<rect x="588.3" y="206" class="st4" width="25.5" height="25.5"/>
	<rect x="623.2" y="206" class="st4" width="25.5" height="25.5"/>
	<rect x="658" y="206" class="st4" width="25.5" height="25.5"/>
	<rect x="692.9" y="206" class="st1" width="25.5" height="25.5"/>
	<rect x="727.8" y="206" class="st1" width="25.5" height="25.5"/>
	<rect x="762.6" y="206" class="st1" width="25.5" height="25.5"/>
	<rect x="797.5" y="206" class="st1" width="25.5" height="25.5"/>
	<rect x="832.4" y="206" class="st3" width="25.5" height="25.5"/>
	<rect x="867.2" y="206" class="st3" width="25.5" height="25.5"/>
	<rect x="902.1" y="206" class="st4" width="25.5" height="25.5"/>
	<rect x="937" y="206" class="st1" width="25.5" height="25.5"/>
	<rect x="971.8" y="206" class="st2" width="25.5" height="25.5"/>
	<rect x="100.2" y="238.3" class="st1" width="25.5" height="25.5"/>
	<rect x="135.1" y="238.3" class="st1" width="25.5" height="25.5"/>
	<rect x="169.9" y="238.3" class="st4" width="25.5" height="25.5"/>
	<rect x="204.8" y="238.3" class="st1" width="25.5" height="25.5"/>
	<rect x="239.7" y="238.3" class="st1" width="25.5" height="25.5"/>
	<rect x="274.5" y="238.3" class="st3" width="25.5" height="25.5"/>
	<rect x="309.4" y="238.3" class="st3" width="25.5" height="25.5"/>
	<rect x="344.2" y="238.3" class="st1" width="25.5" height="25.5"/>
	<rect x="379.1" y="238.3" class="st1" width="25.5" height="25.5"/>
	<rect x="414" y="238.3" class="st4" width="25.5" height="25.5"/>
	<rect x="448.8" y="238.3" class="st2" width="25.5" height="25.5"/>
	<rect x="483.7" y="238.3" class="st1" width="25.5" height="25.5"/>
	<rect x="518.6" y="238.3" class="st2" width="25.5" height="25.5"/>
	<rect x="553.4" y="238.3" class="st2" width="25.5" height="25.5"/>
	<rect x="588.3" y="238.3" class="st2" width="25.5" height="25.5"/>
	<rect x="623.2" y="238.3" class="st1" width="25.5" height="25.5"/>
	<rect x="658" y="238.3" class="st2" width="25.5" height="25.5"/>
	<rect x="692.9" y="238.3" class="st1" width="25.5" height="25.5"/>
	<rect x="727.8" y="238.3" class="st1" width="25.5" height="25.5"/>
	<rect x="762.6" y="238.3" class="st1" width="25.5" height="25.5"/>
	<rect x="797.5" y="238.3" class="st1" width="25.5" height="25.5"/>
	<rect x="832.4" y="238.3" class="st1" width="25.5" height="25.5"/>
	<rect x="867.2" y="238.3" class="st3" width="25.5" height="25.5"/>
	<rect x="902.1" y="238.3" class="st1" width="25.5" height="25.5"/>
	<rect x="937" y="238.3" class="st1" width="25.5" height="25.5"/>
	<rect x="971.8" y="238.3" class="st2" width="25.5" height="25.5"/>
	<rect x="100.2" y="270.6" class="st1" width="25.5" height="25.5"/>
	<rect x="135.1" y="270.6" class="st1" width="25.5" height="25.5"/>
	<rect x="169.9" y="270.6" class="st1" width="25.5" height="25.5"/>
	<rect x="204.8" y="270.6" class="st4" width="25.5" height="25.5"/>
	<rect x="239.7" y="270.6" class="st1" width="25.5" height="25.5"/>
	<rect x="274.5" y="270.6" class="st1" width="25.5" height="25.5"/>
	<rect x="309.4" y="270.6" class="st3" width="25.5" height="25.5"/>
	<rect x="344.2" y="270.6" class="st1" width="25.5" height="25.5"/>
	<rect x="379.1" y="270.6" class="st1" width="25.5" height="25.5"/>
	<rect x="414" y="270.6" class="st1" width="25.5" height="25.5"/>
	<rect x="448.8" y="270.6" class="st2" width="25.5" height="25.5"/>
	<rect x="483.7" y="270.6" class="st1" width="25.5" height="25.5"/>
	<rect x="518.6" y="270.6" class="st2" width="25.5" height="25.5"/>
	<rect x="553.4" y="270.6" class="st2" width="25.5" height="25.5"/>
	<rect x="588.3" y="270.6" class="st1" width="25.5" height="25.5"/>
	<rect x="623.2" y="270.6" class="st1" width="25.5" height="25.5"/>
	<rect x="658" y="270.6" class="st1" width="25.5" height="25.5"/>
	<rect x="692.9" y="270.6" class="st1" width="25.5" height="25.5"/>
	<rect x="727.8" y="270.6" class="st1" width="25.5" height="25.5"/>
	<rect x="762.6" y="270.6" class="st1" width="25.5" height="25.5"/>
	<rect x="797.5" y="270.6" class="st1" width="25.5" height="25.5"/>
	<rect x="832.4" y="270.6" class="st1" width="25.5" height="25.5"/>
	<rect x="867.2" y="270.6" class="st1" width="25.5" height="25.5"/>
	<rect x="902.1" y="270.6" class="st1" width="25.5" height="25.5"/>
	<rect x="937" y="270.6" class="st4" width="25.5" height="25.5"/>
	<rect x="971.8" y="270.6" class="st2" width="25.5" height="25.5"/>
	<rect x="100.2" y="303" class="st3" width="25.5" height="25.5"/>
	<rect x="135.1" y="303" class="st3" width="25.5" height="25.5"/>
	<rect x="169.9" y="303" class="st3" width="25.5" height="25.5"/>
	<rect x="204.8" y="303" class="st3" width="25.5" height="25.5"/>
	<rect x="239.7" y="303" class="st3" width="25.5" height="25.5"/>
	<rect x="274.5" y="303" class="st1" width="25.5" height="25.5"/>
	<rect x="309.4" y="303" class="st1" width="25.5" height="25.5"/>
	<rect x="344.2" y="303" class="st1" width="25.5" height="25.5"/>
	<rect x="379.1" y="303" class="st1" width="25.5" height="25.5"/>
	<rect x="414" y="303" class="st1" width="25.5" height="25.5"/>
	<rect x="448.8" y="303" class="st1" width="25.5" height="25.5"/>
	<rect x="483.7" y="303" class="st2" width="25.5" height="25.5"/>
	<rect x="518.6" y="303" class="st1" width="25.5" height="25.5"/>
	<rect x="553.4" y="303" class="st1" width="25.5" height="25.5"/>
	<rect x="588.3" y="303" class="st1" width="25.5" height="25.5"/>
	<rect x="623.2" y="303" class="st2" width="25.5" height="25.5"/>
	<rect x="658" y="303" class="st1" width="25.5" height="25.5"/>
	<rect x="692.9" y="303" class="st1" width="25.5" height="25.5"/>
	<rect x="727.8" y="303" class="st1" width="25.5" height="25.5"/>
	<rect x="762.6" y="303" class="st1" width="25.5" height="25.5"/>
	<rect x="797.5" y="303" class="st1" width="25.5" height="25.5"/>
	<rect x="832.4" y="303" class="st1" width="25.5" height="25.5"/>
	<rect x="867.2" y="303" class="st1" width="25.5" height="25.5"/>
	<rect x="902.1" y="303" class="st1" width="25.5" height="25.5"/>
	<rect x="937" y="303" class="st1" width="25.5" height="25.5"/>
	<rect x="971.8" y="303" class="st2" width="25.5" height="25.5"/>
</g>
<g id="f5860e3c-93a4-4c8c-a139-2d0f68b42f38">
	<title>add_color</title>
	<path class="st5" d="M53.5,614.9c9.7,35.9,42.9,58.1,42.9,58.1s17.5-35.9,7.8-71.8s-42.9-58.1-42.9-58.1S43.8,579,53.5,614.9z"/>
	<circle class="st5" cx="886.2" cy="630.5" r="25.5"/>
	<rect x="201.5" y="378.4" class="st6" width="348.3" height="295.8"/>
	<path class="st5" d="M495.5,635H143.5V335.4h352.1V635z M147.2,631.2h344.5V339.1H147.2V631.2z"/>
	<path class="st7" d="M368.6,257.4l-7.1,8.4c-2.5,2.8-6.9,3-9.7,0.5c-0.2-0.2-0.3-0.3-0.5-0.5l-7.1-8.4v-58.6h24.5L368.6,257.4z"/>
	<path class="st5" d="M395.3,151.2h-13.1c3.6-5.2,5.5-11.4,5.5-17.7c0-17.3-14-47.6-31.3-47.6s-31.3,30.3-31.3,47.6
		c0,6.3,1.9,12.5,5.5,17.7h-13.1c-5.5,0-10,4.5-10,10v7.2c0,5.5,4.5,10,10,10h77.8c5.5,0,10-4.5,10-10v-7.2
		C405.2,155.7,400.8,151.2,395.3,151.2z"/>
	<path class="st5" d="M356.3,276.3c-3.3,0-6.5-1.6-8.4-4.2L337,257.6V157h38.7v100.5l-10.9,14.5
		C362.8,274.8,359.7,276.3,356.3,276.3z M339,256.9l10.5,14c2.8,3.8,8.2,4.5,12,1.7c0.6-0.5,1.2-1.1,1.7-1.7l10.5-14V159H339V256.9z
		"/>
	<path class="st7" d="M368.3,309c0,6.6-5.4,12-12,12s-12-5.4-12-12s12-20,12-20S368.3,302.4,368.3,309z"/>
	<path class="st1" d="M495.3,379c-0.3,76.8-62.8,138.8-139.5,138.5c-76.4-0.3-138.2-62.1-138.5-138.5H495.3z"/>
	<path class="st7" d="M471.3,378.4c-0.2,63.5-51.9,114.8-115.4,114.6c-63.2-0.2-114.3-51.4-114.6-114.6H471.3z"/>
	<circle class="st5" cx="266.3" cy="32" r="32"/>
	<circle class="st7" cx="356.3" cy="32" r="32"/>
	<circle class="st6" cx="446.3" cy="32" r="32"/>
	<rect x="35.3" y="673" class="st5" width="652.9" height="2.3"/>
	<path class="st5" d="M910.4,675V250h195v425H910.4z M913.2,252.8v419.4h189.4V252.8H913.2z"/>
	<rect x="944" y="306.1" class="st6" width="126.2" height="314.2"/>
	<rect x="969.3" y="337" class="st2" width="75.7" height="75.7"/>
	<rect x="1018.4" y="499.7" transform="matrix(0.866 -0.5 0.5 0.866 -120.0742 587.6856)" class="st8" width="36.5" height="36.5"/>
	<rect x="965.1" y="463.2" class="st5" width="36.5" height="123.4"/>
	<polygon class="st9" points="789.2,400.4 734.4,516.6 772.8,537.8 840.9,421.7 	"/>
	<polygon class="st10" points="789.2,400.4 734.4,516.6 772.8,537.8 840.9,421.7 	"/>
	<path class="st11" d="M736.9,500.7l-65.7,135l-37.1,37.1c0,0-51.1,0.6-31,20.1s82.1-3.6,82.1-3.6l-1.8,7.3l40.1-3.6l-1.2-14.6
		l-3.6-1.8c0,0,2.4-28-3.6-33.4s10.9-12.2,10.9-12.2l69.9-121.6L736.9,500.7z"/>
	<path class="st9" d="M755.7,391.9c0,0-58.4,34.1-43.2,65.1s20.1,33.4,20.1,33.4l31-22.5l-5.5-12.8l60.8-35.3
		C819,419.9,772.1,384,755.7,391.9z"/>
	<path class="st11" d="M719.2,486.2l83.3,133.2l8.5,37.1c0,0-30.4,38.3-7.9,40.7s48-33.4,49.3-49.9s3-26.8,3-26.8l6.1,2.4
		c0,0,18.2-29.2,9.1-32.8c-5.4-2.2-10.8-4-16.4-5.5c0,0-13.4-8.5-26.1-5.5c0,0,2.4-9.7,0-14s-67.4-111.6-67.4-111.6L719.2,486.2z"/>
	<circle class="st9" cx="862.8" cy="94.5" r="33.4"/>
	<path class="st9" d="M853.6,115.8c0,0,12.2,34.7,9.1,44.4s-27.4,55.3-27.4,55.3l3,21.3l60.8-93.7c0,0-15.2-20.1-10.9-34.1
		L853.6,115.8z"/>
	<path class="st11" d="M876.1,374.9l-17.6,72.4c0,0-87.6-52.3-111.9-50.5c0,0,52.9-60.2,73-60.2S876.1,374.9,876.1,374.9z"/>
	<path class="st12" d="M919.9,148c0,0-14-22.5-31-3c-17,19.5-48,70.5-48,70.5L843,201c0,0-19.2,14.5-20.4,33.4s-6.1,82.1-6.1,82.1
		l-7.9,26.8L884,387l12.2-20.7c0,0,45.6,8.5,50.5,3S918.3,275,918.3,275L919.9,148z"/>
	<path class="st9" d="M853.6,274.5L817.1,325c0,0-43.8,17-36.5,31s44.4-21.3,44.4-21.3l54.7-48L853.6,274.5z"/>
	<path class="st10" d="M889.5,153.5c0,0-26.8,42.6-28,74.8s-0.9,28.9-0.9,28.9L847.2,276l31.6,17.6L895,277c0,0,35.9-10.3,31.6-40.1
		s-6.7-85.1-12.8-85.1S889.5,153.5,889.5,153.5z"/>
	<path class="st12" d="M890.7,147.4c0,0-26.8,42.6-28,74.8s1.8,32.8,1.8,32.8L848.2,277l30.4,16.4l17.6-22.5
		c0,0,35.9-10.3,31.6-40.1s-6.7-85.1-12.8-85.1S890.7,147.4,890.7,147.4z"/>
	<path class="st11" d="M823.8,87.9c0,0-10.3-49.8,43.6-37.3c0,0,37.1-9.8,53,36.3l16.3,48.4l-6.3-2.8l-2.4,6.4l-9.7,3.3l-4.9-8.1
		l-1.3,10.3L832,158.7c0,0,34.6-24.2,32.2-62.6l-6.3,7.8L823.8,87.9z"/>
</g>
<g id="Layer_3">
	<path class="st11" d="M126.5,583.8h27.6l68.1-26.6c0,0,48.4-19.7,44.4,17.8c-3.9,37.5-10.9,87.8-10.9,87.8s-21.7-9.9-33.6-6.9
		s-3.9-60.2-3.9-60.2s-96.7,46.4-105.6,40.5c-8.9-5.9-10.9-47.4-10.9-47.4L126.5,583.8z"/>
	<path class="st13" d="M126.5,583.8h27.6l68.1-26.6c0,0,48.4-19.7,44.4,17.8c-3.9,37.5-10.9,87.8-10.9,87.8s-21.7-9.9-33.6-6.9
		s-3.9-60.2-3.9-60.2s-96.7,46.4-105.6,40.5c-8.9-5.9-10.9-47.4-10.9-47.4L126.5,583.8z"/>
	<path class="st14" d="M170.1,497.3l33.4,48l78,65.1c0,0,72,16.8,62.2,28.6c-9.9,11.8-70.1-11.8-70.1-11.8s-89.8-65.1-92.8-70.1
		c-3-4.9-35.5-51.3-35.5-51.3L170.1,497.3z"/>
	<path class="st10" d="M170.1,497.3l33.4,48l78,65.1c0,0,72,16.8,62.2,28.6c-9.9,11.8-70.1-11.8-70.1-11.8s-89.8-65.1-92.8-70.1
		c-3-4.9-35.5-51.3-35.5-51.3L170.1,497.3z"/>
	<path class="st15" d="M148.9,452.6l21.7,42.4c0,0-4.9,20.7-12.8,22.7c-7.9,2-41.4-25.7-41.4-25.7L148.9,452.6z"/>
	<path class="st16" d="M-155.2,626.1l21.7,42.4c0,0-4.9,20.7-12.8,22.7c-7.9,2-41.4-25.7-41.4-25.7L-155.2,626.1z"/>
	<path class="st11" d="M415.1,561.8l6.4,26.5c0.1,0.3,0.1,0.6,0,0.9l-29.1,90.9c-0.3,0.9-1.2,1.3-2.1,1.1c-0.6-0.2-1.1-0.7-1.1-1.4
		l-4-35.4c0-0.2,0-0.5,0.1-0.7l26.7-81.9c0.3-0.9,1.2-1.3,2.1-1.1C414.5,560.8,414.9,561.3,415.1,561.8z"/>
	<polygon class="st17" points="412.7,564.1 418.6,586.8 393,669.7 387,644 	"/>
	<path class="st11" d="M283.4,687.4c1,3,102.6-1,103.6-2c0.9-1.2,1.6-2.6,2.2-3.9c0.9-2,1.8-3.9,1.8-3.9l-3.9-32L286.4,642
		c0,0-2.5,27.1-3,39.5C283.2,684.6,283.2,686.8,283.4,687.4z"/>
	<polygon class="st10" points="374.2,649.9 376.2,677.6 331.8,677.6 331.8,649.9 	"/>
	<polygon class="st10" points="317,658.8 317.2,658.8 316,670.7 291.3,670.7 291.3,658.8 	"/>
	<path class="st10" d="M283.4,687.4c1,3,102.6-1,103.6-2c0.9-1.2,1.6-2.6,2.2-3.9H283.4C283.2,684.6,283.2,686.8,283.4,687.4z"/>
	<circle class="st14" cx="155.4" cy="420.3" r="44.4"/>
	<path class="st14" d="M152.5,459.7c0,0-14.8,25.7-17.8,39.5c-3,13.8-44.4-27.6-44.4-27.6l-5.4-14.3c0,0,39-18.3,36-33.1
		S152.5,459.7,152.5,459.7z"/>
	<path class="st14" d="M169.9,516.7l40.5,53.3l96.7,72c0,0,70.1,14.8,54.3,25.7s-61.2-9.9-61.2-9.9s-97.7-52.3-118.4-74
		s-59.2-58.2-59.2-58.2L169.9,516.7z"/>
	<path class="st18" d="M115.7,599.6l11.8,18.7l70.7-22.2c15.5-4.9,32.5-3.1,46.3,5.6c12.3,7.8,20.2,20.1,2.5,38.4
		c-35.5,36.5-59.2,16.8-59.2,16.8S68.3,713.1,48.6,685.5C28.8,657.8,27.8,644,27.8,644S103.8,596.6,115.7,599.6z"/>
	<path class="st19" d="M263.7,664.7c0,0,31.6,20.7-5.9,30.6c-37.5,9.9-65.1-3.9-65.1-3.9s-32.6,0-32.6-16.8
		c0-16.8,10.9-18.7,10.9-18.7l33.6,4.9C204.5,660.8,244.9,649.9,263.7,664.7z"/>
	<path class="st11" d="M191.9,409.1c3,1.3,6,2.9,9.3,3.3s7-0.8,8.6-3.7c0.8-1.6,0.9-3.4,1-5.2c0.1-5.4-0.3-11.3-3.7-15.5
		c-2.2-2.7-5.4-4.4-7.6-7c-1.6-1.9-2.7-4.1-3.9-6.3c-4.4-8.3-10.9-16.2-20-18.6c-3.8-1-7.7-0.9-11.7-0.9l-22.8,0.3
		c-3.7,0.1-7.4,0.1-11,1.2c-7.3,2.2-12.7,8.4-17.6,14.3c-3.7,4.4-7.3,8.9-10.1,13.9c-3.9,7.3-5.9,15.6-5.8,23.9
		c0,2.1,0.2,4.3,0.8,6.3c0.7,1.9,1.5,3.7,2.5,5.5c4.3,8.4,6.8,18.9,2,27c8.4-3.4,16.6-7.9,22.2-15.1c2.5-3.2,4.4-6.9,7.7-9.3
		c3.3-2.3,8.6-2.6,10.8,0.9c0.7,1.4,1.1,2.9,1.1,4.5c0.2,2.6,0.1,5.3,1.2,7.6c1.1,2.3,3.7,4.2,6.2,3.5c4.3-1.2,3.9-7.8,7.2-10.8
		c2.5-2.3,6.4-1.8,9.6-2.9c3.8-1.2,6.6-4.5,8.2-8.1c1.2-2.7,1.2-9.9,3.5-11.4C182.6,404.9,189.2,407.9,191.9,409.1z"/>
	<path class="st15" d="M91.8,453.3c2-0.5,4.1-0.5,6.1,0c6.3,1.7,20.5,6.2,23.6,13.1c3.9,8.9,17.8,22.7,17.8,22.7
		s18.7,18.7,14.8,31.6c-3.9,12.8-18.7,27.6-18.7,27.6s3.9,61.2-15.8,77s-27.6,4.9-27.6,19.7s-61.2,61.2-73,32.6c0,0,5.9-53.3,3.9-72
		C20.8,587.1,23.7,471.8,91.8,453.3z"/>
	<path class="st15" d="M140.3,486.2c0,0,60.2,44.4,49.3,63.2c0,0-36.5,17.8-44.4,16.8c-7.9-1-38.5-35.5-46.4-38.5
		C90.9,524.7,87,471.4,140.3,486.2z"/>
</g>
</svg>
